<mxfile host="65bd71144e">
    <diagram id="aFjmqBMZxq0E7o9NalMy" name="Page-1">
        <mxGraphModel dx="687" dy="1087" grid="1" gridSize="10" guides="1" tooltips="1" connect="1" arrows="1" fold="1" page="0" pageScale="1" pageWidth="850" pageHeight="1100" background="none" math="0" shadow="1">
            <root>
                <mxCell id="0"/>
                <mxCell id="1" parent="0"/>
                <mxCell id="75" value="Student&lt;br&gt;Account" style="rounded=0;whiteSpace=wrap;html=1;hachureGap=4;fontFamily=Architects Daughter;fontSource=https%3A%2F%2Ffonts.googleapis.com%2Fcss%3Ffamily%3DArchitects%2BDaughter;fontSize=20;" parent="1" vertex="1">
                    <mxGeometry x="458" y="880" width="120" height="60" as="geometry"/>
                </mxCell>
                <mxCell id="76" value="" style="endArrow=none;html=1;hachureGap=4;fontFamily=Architects Daughter;fontSource=https%3A%2F%2Ffonts.googleapis.com%2Fcss%3Ffamily%3DArchitects%2BDaughter;fontSize=16;strokeWidth=4;" parent="1" edge="1">
                    <mxGeometry width="50" height="50" relative="1" as="geometry">
                        <mxPoint x="578" y="910" as="sourcePoint"/>
                        <mxPoint x="678" y="910" as="targetPoint"/>
                    </mxGeometry>
                </mxCell>
                <mxCell id="78" value="" style="endArrow=none;html=1;hachureGap=4;fontFamily=Architects Daughter;fontSource=https%3A%2F%2Ffonts.googleapis.com%2Fcss%3Ffamily%3DArchitects%2BDaughter;fontSize=16;strokeWidth=5;" parent="1" edge="1">
                    <mxGeometry width="50" height="50" relative="1" as="geometry">
                        <mxPoint x="348" y="910" as="sourcePoint"/>
                        <mxPoint x="458" y="910" as="targetPoint"/>
                    </mxGeometry>
                </mxCell>
                <mxCell id="79" value="Password" style="ellipse;whiteSpace=wrap;html=1;hachureGap=4;fontFamily=Architects Daughter;fontSource=https%3A%2F%2Ffonts.googleapis.com%2Fcss%3Ffamily%3DArchitects%2BDaughter;fontSize=20;" parent="1" vertex="1">
                    <mxGeometry x="678" y="880" width="120" height="60" as="geometry"/>
                </mxCell>
                <mxCell id="80" value="&lt;u&gt;ID&lt;/u&gt;" style="ellipse;whiteSpace=wrap;html=1;hachureGap=4;fontFamily=Architects Daughter;fontSource=https%3A%2F%2Ffonts.googleapis.com%2Fcss%3Ffamily%3DArchitects%2BDaughter;fontSize=20;" parent="1" vertex="1">
                    <mxGeometry x="248" y="880" width="100" height="60" as="geometry"/>
                </mxCell>
                <mxCell id="81" value="&lt;u&gt;Username&lt;/u&gt;" style="ellipse;whiteSpace=wrap;html=1;hachureGap=4;fontFamily=Architects Daughter;fontSource=https%3A%2F%2Ffonts.googleapis.com%2Fcss%3Ffamily%3DArchitects%2BDaughter;fontSize=20;" parent="1" vertex="1">
                    <mxGeometry x="458" y="1007" width="120" height="60" as="geometry"/>
                </mxCell>
                <mxCell id="82" value="" style="endArrow=none;html=1;hachureGap=4;fontFamily=Architects Daughter;fontSource=https%3A%2F%2Ffonts.googleapis.com%2Fcss%3Ffamily%3DArchitects%2BDaughter;fontSize=16;strokeWidth=4;" parent="1" edge="1">
                    <mxGeometry width="50" height="50" relative="1" as="geometry">
                        <mxPoint x="518" y="1007" as="sourcePoint"/>
                        <mxPoint x="518" y="940" as="targetPoint"/>
                    </mxGeometry>
                </mxCell>
                <mxCell id="83" value="" style="endArrow=classic;html=1;strokeWidth=4;" parent="1" edge="1">
                    <mxGeometry width="50" height="50" relative="1" as="geometry">
                        <mxPoint x="518" y="880" as="sourcePoint"/>
                        <mxPoint x="518" y="813" as="targetPoint"/>
                    </mxGeometry>
                </mxCell>
                <mxCell id="84" value="&lt;font style=&quot;font-size: 18px;&quot; data-font-src=&quot;https://fonts.googleapis.com/css?family=Architects+Daughter&quot; face=&quot;Architects Daughter&quot;&gt;has a&lt;/font&gt;" style="rhombus;whiteSpace=wrap;html=1;" parent="1" vertex="1">
                    <mxGeometry x="468" y="733" width="100" height="80" as="geometry"/>
                </mxCell>
                <mxCell id="85" value="" style="endArrow=classic;html=1;strokeWidth=1;fontFamily=Architects Daughter;fontSource=https%3A%2F%2Ffonts.googleapis.com%2Fcss%3Ffamily%3DArchitects%2BDaughter;fontSize=18;entryX=0.5;entryY=0;entryDx=0;entryDy=0;" parent="1" target="84" edge="1">
                    <mxGeometry width="50" height="50" relative="1" as="geometry">
                        <mxPoint x="518" y="666" as="sourcePoint"/>
                        <mxPoint x="558" y="593" as="targetPoint"/>
                    </mxGeometry>
                </mxCell>
                <mxCell id="86" value="Student" style="rounded=0;whiteSpace=wrap;html=1;fontFamily=Architects Daughter;fontSource=https%3A%2F%2Ffonts.googleapis.com%2Fcss%3Ffamily%3DArchitects%2BDaughter;fontSize=18;" parent="1" vertex="1">
                    <mxGeometry x="458" y="605" width="120" height="60" as="geometry"/>
                </mxCell>
                <mxCell id="87" value="first_name" style="ellipse;whiteSpace=wrap;html=1;fontFamily=Architects Daughter;fontSource=https%3A%2F%2Ffonts.googleapis.com%2Fcss%3Ffamily%3DArchitects%2BDaughter;fontSize=18;" parent="1" vertex="1">
                    <mxGeometry x="668" y="610" width="122" height="60" as="geometry"/>
                </mxCell>
                <mxCell id="88" value="" style="endArrow=none;html=1;sketch=0;strokeWidth=4;fontFamily=Architects Daughter;fontSource=https%3A%2F%2Ffonts.googleapis.com%2Fcss%3Ffamily%3DArchitects%2BDaughter;fontSize=18;exitX=1;exitY=0.5;exitDx=0;exitDy=0;" parent="1" source="86" edge="1">
                    <mxGeometry width="50" height="50" relative="1" as="geometry">
                        <mxPoint x="648" y="685" as="sourcePoint"/>
                        <mxPoint x="668" y="635" as="targetPoint"/>
                    </mxGeometry>
                </mxCell>
                <mxCell id="89" value="&lt;u&gt;ID&lt;/u&gt;" style="ellipse;whiteSpace=wrap;html=1;fontFamily=Architects Daughter;fontSource=https%3A%2F%2Ffonts.googleapis.com%2Fcss%3Ffamily%3DArchitects%2BDaughter;fontSize=18;" parent="1" vertex="1">
                    <mxGeometry x="290" y="605" width="100" height="60" as="geometry"/>
                </mxCell>
                <mxCell id="90" value="" style="endArrow=none;html=1;sketch=0;strokeWidth=4;fontFamily=Architects Daughter;fontSource=https%3A%2F%2Ffonts.googleapis.com%2Fcss%3Ffamily%3DArchitects%2BDaughter;fontSize=18;" parent="1" edge="1">
                    <mxGeometry width="50" height="50" relative="1" as="geometry">
                        <mxPoint x="390" y="635" as="sourcePoint"/>
                        <mxPoint x="458" y="635" as="targetPoint"/>
                    </mxGeometry>
                </mxCell>
                <mxCell id="91" value="" style="endArrow=none;html=1;sketch=0;strokeWidth=1;fontFamily=Architects Daughter;fontSource=https%3A%2F%2Ffonts.googleapis.com%2Fcss%3Ffamily%3DArchitects%2BDaughter;fontSize=18;entryX=0.5;entryY=1;entryDx=0;entryDy=0;" parent="1" target="92" edge="1">
                    <mxGeometry width="50" height="50" relative="1" as="geometry">
                        <mxPoint x="518" y="605" as="sourcePoint"/>
                        <mxPoint x="518" y="546" as="targetPoint"/>
                    </mxGeometry>
                </mxCell>
                <mxCell id="92" value="belongs to" style="rhombus;whiteSpace=wrap;html=1;fontFamily=Architects Daughter;fontSource=https%3A%2F%2Ffonts.googleapis.com%2Fcss%3Ffamily%3DArchitects%2BDaughter;fontSize=18;" parent="1" vertex="1">
                    <mxGeometry x="463" y="464" width="110" height="80" as="geometry"/>
                </mxCell>
                <mxCell id="93" value="" style="endArrow=none;html=1;sketch=0;strokeWidth=1;fontFamily=Architects Daughter;fontSource=https%3A%2F%2Ffonts.googleapis.com%2Fcss%3Ffamily%3DArchitects%2BDaughter;fontSize=18;startArrow=none;" parent="1" source="94" edge="1">
                    <mxGeometry width="50" height="50" relative="1" as="geometry">
                        <mxPoint x="517" y="384" as="sourcePoint"/>
                        <mxPoint x="517.38" y="464" as="targetPoint"/>
                    </mxGeometry>
                </mxCell>
                <mxCell id="95" value="" style="endArrow=none;html=1;sketch=0;strokeWidth=1;fontFamily=Architects Daughter;fontSource=https%3A%2F%2Ffonts.googleapis.com%2Fcss%3Ffamily%3DArchitects%2BDaughter;fontSize=18;" parent="1" target="94" edge="1">
                    <mxGeometry width="50" height="50" relative="1" as="geometry">
                        <mxPoint x="517" y="384" as="sourcePoint"/>
                        <mxPoint x="517.3800000000001" y="464" as="targetPoint"/>
                    </mxGeometry>
                </mxCell>
                <mxCell id="94" value="Department" style="rounded=0;whiteSpace=wrap;html=1;fontFamily=Architects Daughter;fontSource=https%3A%2F%2Ffonts.googleapis.com%2Fcss%3Ffamily%3DArchitects%2BDaughter;fontSize=18;" parent="1" vertex="1">
                    <mxGeometry x="458" y="364" width="120" height="60" as="geometry"/>
                </mxCell>
                <mxCell id="96" value="" style="endArrow=none;html=1;sketch=0;strokeWidth=4;fontFamily=Architects Daughter;fontSource=https%3A%2F%2Ffonts.googleapis.com%2Fcss%3Ffamily%3DArchitects%2BDaughter;fontSize=18;" parent="1" target="97" edge="1">
                    <mxGeometry width="50" height="50" relative="1" as="geometry">
                        <mxPoint x="578" y="424" as="sourcePoint"/>
                        <mxPoint x="708" y="484" as="targetPoint"/>
                    </mxGeometry>
                </mxCell>
                <mxCell id="97" value="Capacity" style="ellipse;whiteSpace=wrap;html=1;fontFamily=Architects Daughter;fontSource=https%3A%2F%2Ffonts.googleapis.com%2Fcss%3Ffamily%3DArchitects%2BDaughter;fontSize=18;" parent="1" vertex="1">
                    <mxGeometry x="790" y="450" width="120" height="50" as="geometry"/>
                </mxCell>
                <mxCell id="98" value="Building" style="ellipse;whiteSpace=wrap;html=1;fontFamily=Architects Daughter;fontSource=https%3A%2F%2Ffonts.googleapis.com%2Fcss%3Ffamily%3DArchitects%2BDaughter;fontSize=18;" parent="1" vertex="1">
                    <mxGeometry x="648" y="364" width="120" height="60" as="geometry"/>
                </mxCell>
                <mxCell id="99" value="" style="endArrow=none;html=1;sketch=0;strokeWidth=4;fontFamily=Architects Daughter;fontSource=https%3A%2F%2Ffonts.googleapis.com%2Fcss%3Ffamily%3DArchitects%2BDaughter;fontSize=18;entryX=0;entryY=0.5;entryDx=0;entryDy=0;" parent="1" target="98" edge="1">
                    <mxGeometry width="50" height="50" relative="1" as="geometry">
                        <mxPoint x="578" y="394" as="sourcePoint"/>
                        <mxPoint x="628" y="344" as="targetPoint"/>
                    </mxGeometry>
                </mxCell>
                <mxCell id="100" value="&lt;u&gt;ID&lt;/u&gt;" style="ellipse;whiteSpace=wrap;html=1;fontFamily=Architects Daughter;fontSource=https%3A%2F%2Ffonts.googleapis.com%2Fcss%3Ffamily%3DArchitects%2BDaughter;fontSize=18;" parent="1" vertex="1">
                    <mxGeometry x="638" y="235" width="120" height="60" as="geometry"/>
                </mxCell>
                <mxCell id="101" value="" style="endArrow=none;html=1;sketch=0;strokeWidth=4;fontFamily=Architects Daughter;fontSource=https%3A%2F%2Ffonts.googleapis.com%2Fcss%3Ffamily%3DArchitects%2BDaughter;fontSize=18;" parent="1" edge="1">
                    <mxGeometry width="50" height="50" relative="1" as="geometry">
                        <mxPoint x="578" y="364" as="sourcePoint"/>
                        <mxPoint x="608" y="334" as="targetPoint"/>
                        <Array as="points">
                            <mxPoint x="658" y="284"/>
                        </Array>
                    </mxGeometry>
                </mxCell>
                <mxCell id="119" value="" style="edgeStyle=none;sketch=0;html=1;strokeWidth=4;fontFamily=Architects Daughter;fontSource=https%3A%2F%2Ffonts.googleapis.com%2Fcss%3Ffamily%3DArchitects%2BDaughter;fontSize=18;exitX=0.5;exitY=0;exitDx=0;exitDy=0;entryX=0.5;entryY=1;entryDx=0;entryDy=0;" parent="1" target="102" edge="1">
                    <mxGeometry relative="1" as="geometry">
                        <mxPoint x="515" y="364.0000000000001" as="sourcePoint"/>
                        <mxPoint x="515" y="320" as="targetPoint"/>
                    </mxGeometry>
                </mxCell>
                <mxCell id="102" value="Exists in" style="rhombus;whiteSpace=wrap;html=1;fontFamily=Architects Daughter;fontSource=https%3A%2F%2Ffonts.googleapis.com%2Fcss%3Ffamily%3DArchitects%2BDaughter;fontSize=18;" parent="1" vertex="1">
                    <mxGeometry x="470" y="226" width="90" height="80" as="geometry"/>
                </mxCell>
                <mxCell id="104" value="" style="endArrow=classic;html=1;sketch=0;strokeWidth=5;fontFamily=Architects Daughter;fontSource=https%3A%2F%2Ffonts.googleapis.com%2Fcss%3Ffamily%3DArchitects%2BDaughter;fontSize=18;" parent="1" edge="1">
                    <mxGeometry width="50" height="50" relative="1" as="geometry">
                        <mxPoint x="458" y="394" as="sourcePoint"/>
                        <mxPoint x="380" y="394" as="targetPoint"/>
                    </mxGeometry>
                </mxCell>
                <mxCell id="106" value="Offers" style="rhombus;whiteSpace=wrap;html=1;fontFamily=Architects Daughter;fontSource=https%3A%2F%2Ffonts.googleapis.com%2Fcss%3Ffamily%3DArchitects%2BDaughter;fontSize=18;" parent="1" vertex="1">
                    <mxGeometry x="300" y="354" width="80" height="80" as="geometry"/>
                </mxCell>
                <mxCell id="107" value="" style="endArrow=none;html=1;sketch=0;strokeWidth=1;fontFamily=Architects Daughter;fontSource=https%3A%2F%2Ffonts.googleapis.com%2Fcss%3Ffamily%3DArchitects%2BDaughter;fontSize=18;" parent="1" edge="1">
                    <mxGeometry width="50" height="50" relative="1" as="geometry">
                        <mxPoint x="260" y="394" as="sourcePoint"/>
                        <mxPoint x="300" y="394" as="targetPoint"/>
                    </mxGeometry>
                </mxCell>
                <mxCell id="108" value="Course" style="rounded=0;whiteSpace=wrap;html=1;fontFamily=Architects Daughter;fontSource=https%3A%2F%2Ffonts.googleapis.com%2Fcss%3Ffamily%3DArchitects%2BDaughter;fontSize=18;" parent="1" vertex="1">
                    <mxGeometry x="179" y="364" width="80" height="60" as="geometry"/>
                </mxCell>
                <mxCell id="109" value="" style="endArrow=none;html=1;sketch=0;strokeWidth=4;fontFamily=Architects Daughter;fontSource=https%3A%2F%2Ffonts.googleapis.com%2Fcss%3Ffamily%3DArchitects%2BDaughter;fontSize=18;" parent="1" edge="1">
                    <mxGeometry width="50" height="50" relative="1" as="geometry">
                        <mxPoint x="129" y="390" as="sourcePoint"/>
                        <mxPoint x="179" y="390" as="targetPoint"/>
                    </mxGeometry>
                </mxCell>
                <mxCell id="110" value="&lt;u&gt;ID&lt;/u&gt;" style="ellipse;whiteSpace=wrap;html=1;fontFamily=Architects Daughter;fontSource=https%3A%2F%2Ffonts.googleapis.com%2Fcss%3Ffamily%3DArchitects%2BDaughter;fontSize=18;" parent="1" vertex="1">
                    <mxGeometry x="30" y="366" width="100" height="46" as="geometry"/>
                </mxCell>
                <mxCell id="111" value="" style="endArrow=none;html=1;sketch=0;strokeWidth=1;fontFamily=Architects Daughter;fontSource=https%3A%2F%2Ffonts.googleapis.com%2Fcss%3Ffamily%3DArchitects%2BDaughter;fontSize=18;" parent="1" edge="1">
                    <mxGeometry width="50" height="50" relative="1" as="geometry">
                        <mxPoint x="220" y="510" as="sourcePoint"/>
                        <mxPoint x="219" y="424" as="targetPoint"/>
                    </mxGeometry>
                </mxCell>
                <mxCell id="112" value="Semester" style="ellipse;whiteSpace=wrap;html=1;fontFamily=Architects Daughter;fontSource=https%3A%2F%2Ffonts.googleapis.com%2Fcss%3Ffamily%3DArchitects%2BDaughter;fontSize=18;" parent="1" vertex="1">
                    <mxGeometry x="169" y="510" width="101" height="50" as="geometry"/>
                </mxCell>
                <mxCell id="114" value="" style="endArrow=none;html=1;sketch=0;strokeWidth=4;fontFamily=Architects Daughter;fontSource=https%3A%2F%2Ffonts.googleapis.com%2Fcss%3Ffamily%3DArchitects%2BDaughter;fontSize=18;" parent="1" edge="1">
                    <mxGeometry width="50" height="50" relative="1" as="geometry">
                        <mxPoint x="220" y="364" as="sourcePoint"/>
                        <mxPoint x="220" y="290" as="targetPoint"/>
                    </mxGeometry>
                </mxCell>
                <mxCell id="115" value="Title" style="ellipse;whiteSpace=wrap;html=1;fontFamily=Architects Daughter;fontSource=https%3A%2F%2Ffonts.googleapis.com%2Fcss%3Ffamily%3DArchitects%2BDaughter;fontSize=18;" parent="1" vertex="1">
                    <mxGeometry x="168.75" y="230" width="100.5" height="60" as="geometry"/>
                </mxCell>
                <mxCell id="121" value="" style="endArrow=classic;html=1;sketch=0;strokeWidth=1;fontFamily=Architects Daughter;fontSource=https%3A%2F%2Ffonts.googleapis.com%2Fcss%3Ffamily%3DArchitects%2BDaughter;fontSize=18;" parent="1" edge="1">
                    <mxGeometry width="50" height="50" relative="1" as="geometry">
                        <mxPoint x="515" y="140" as="sourcePoint"/>
                        <mxPoint x="515" y="227" as="targetPoint"/>
                        <Array as="points">
                            <mxPoint x="515" y="227"/>
                        </Array>
                    </mxGeometry>
                </mxCell>
                <mxCell id="122" value="Faculty" style="rounded=0;whiteSpace=wrap;html=1;fontFamily=Architects Daughter;fontSource=https%3A%2F%2Ffonts.googleapis.com%2Fcss%3Ffamily%3DArchitects%2BDaughter;fontSize=18;" parent="1" vertex="1">
                    <mxGeometry x="459" y="80" width="120" height="60" as="geometry"/>
                </mxCell>
                <mxCell id="123" value="Building" style="ellipse;whiteSpace=wrap;html=1;fontFamily=Architects Daughter;fontSource=https%3A%2F%2Ffonts.googleapis.com%2Fcss%3Ffamily%3DArchitects%2BDaughter;fontSize=18;" parent="1" vertex="1">
                    <mxGeometry x="666" y="70" width="132" height="80" as="geometry"/>
                </mxCell>
                <mxCell id="124" value="" style="endArrow=none;html=1;sketch=0;strokeWidth=4;fontFamily=Architects Daughter;fontSource=https%3A%2F%2Ffonts.googleapis.com%2Fcss%3Ffamily%3DArchitects%2BDaughter;fontSize=18;entryX=0;entryY=0.5;entryDx=0;entryDy=0;" parent="1" target="123" edge="1">
                    <mxGeometry width="50" height="50" relative="1" as="geometry">
                        <mxPoint x="580" y="110" as="sourcePoint"/>
                        <mxPoint x="646" y="130" as="targetPoint"/>
                    </mxGeometry>
                </mxCell>
                <mxCell id="125" value="" style="endArrow=none;html=1;sketch=0;strokeWidth=4;fontFamily=Architects Daughter;fontSource=https%3A%2F%2Ffonts.googleapis.com%2Fcss%3Ffamily%3DArchitects%2BDaughter;fontSize=18;" parent="1" edge="1">
                    <mxGeometry width="50" height="50" relative="1" as="geometry">
                        <mxPoint x="360" y="110" as="sourcePoint"/>
                        <mxPoint x="458" y="110" as="targetPoint"/>
                    </mxGeometry>
                </mxCell>
                <mxCell id="126" value="&lt;u&gt;ID&lt;/u&gt;" style="ellipse;whiteSpace=wrap;html=1;fontFamily=Architects Daughter;fontSource=https%3A%2F%2Ffonts.googleapis.com%2Fcss%3Ffamily%3DArchitects%2BDaughter;fontSize=18;" parent="1" vertex="1">
                    <mxGeometry x="259" y="85" width="102" height="50" as="geometry"/>
                </mxCell>
                <mxCell id="127" value="" style="endArrow=none;html=1;strokeWidth=4;" edge="1" parent="1" target="128">
                    <mxGeometry width="50" height="50" relative="1" as="geometry">
                        <mxPoint x="529" y="80" as="sourcePoint"/>
                        <mxPoint x="579" y="30" as="targetPoint"/>
                    </mxGeometry>
                </mxCell>
                <mxCell id="128" value="&lt;font style=&quot;font-size: 18px;&quot; face=&quot;Architects Daughter&quot;&gt;&lt;u&gt;Name&lt;/u&gt;&lt;/font&gt;" style="ellipse;whiteSpace=wrap;html=1;" vertex="1" parent="1">
                    <mxGeometry x="638" y="-70" width="120" height="80" as="geometry"/>
                </mxCell>
                <mxCell id="129" value="" style="endArrow=none;html=1;strokeWidth=4;fontFamily=Architects Daughter;fontSource=https%3A%2F%2Ffonts.googleapis.com%2Fcss%3Ffamily%3DArchitects%2BDaughter;fontSize=18;" edge="1" parent="1" target="130">
                    <mxGeometry width="50" height="50" relative="1" as="geometry">
                        <mxPoint x="579" y="380" as="sourcePoint"/>
                        <mxPoint x="810" y="300" as="targetPoint"/>
                    </mxGeometry>
                </mxCell>
                <mxCell id="130" value="&lt;u&gt;Name&lt;/u&gt;" style="ellipse;whiteSpace=wrap;html=1;fontFamily=Architects Daughter;fontSource=https%3A%2F%2Ffonts.googleapis.com%2Fcss%3Ffamily%3DArchitects%2BDaughter;fontSize=18;" vertex="1" parent="1">
                    <mxGeometry x="780" y="274" width="120" height="80" as="geometry"/>
                </mxCell>
                <mxCell id="131" value="" style="endArrow=none;html=1;strokeWidth=4;fontFamily=Architects Daughter;fontSource=https%3A%2F%2Ffonts.googleapis.com%2Fcss%3Ffamily%3DArchitects%2BDaughter;fontSize=18;exitX=1;exitY=1;exitDx=0;exitDy=0;" edge="1" parent="1" source="86">
                    <mxGeometry width="50" height="50" relative="1" as="geometry">
                        <mxPoint x="550" y="660" as="sourcePoint"/>
                        <mxPoint x="690" y="730" as="targetPoint"/>
                        <Array as="points"/>
                    </mxGeometry>
                </mxCell>
                <mxCell id="132" value="last_name" style="ellipse;whiteSpace=wrap;html=1;fontFamily=Architects Daughter;fontSource=https%3A%2F%2Ffonts.googleapis.com%2Fcss%3Ffamily%3DArchitects%2BDaughter;fontSize=18;" vertex="1" parent="1">
                    <mxGeometry x="690" y="700" width="120" height="80" as="geometry"/>
                </mxCell>
                <mxCell id="133" value="" style="endArrow=none;html=1;strokeWidth=1;fontFamily=Architects Daughter;fontSource=https%3A%2F%2Ffonts.googleapis.com%2Fcss%3Ffamily%3DArchitects%2BDaughter;fontSize=18;exitX=0.75;exitY=1;exitDx=0;exitDy=0;" edge="1" parent="1" source="94">
                    <mxGeometry width="50" height="50" relative="1" as="geometry">
                        <mxPoint x="700" y="710" as="sourcePoint"/>
                        <mxPoint x="880" y="630" as="targetPoint"/>
                        <Array as="points">
                            <mxPoint x="880" y="630"/>
                        </Array>
                    </mxGeometry>
                </mxCell>
                <mxCell id="135" value="teaches in" style="rhombus;whiteSpace=wrap;html=1;fontFamily=Architects Daughter;fontSource=https%3A%2F%2Ffonts.googleapis.com%2Fcss%3Ffamily%3DArchitects%2BDaughter;fontSize=18;" vertex="1" parent="1">
                    <mxGeometry x="880" y="570" width="110" height="120" as="geometry"/>
                </mxCell>
                <mxCell id="136" value="" style="endArrow=classic;html=1;strokeWidth=1;fontFamily=Architects Daughter;fontSource=https%3A%2F%2Ffonts.googleapis.com%2Fcss%3Ffamily%3DArchitects%2BDaughter;fontSize=18;" edge="1" parent="1">
                    <mxGeometry width="50" height="50" relative="1" as="geometry">
                        <mxPoint x="934.38" y="795" as="sourcePoint"/>
                        <mxPoint x="934.38" y="685" as="targetPoint"/>
                        <Array as="points"/>
                    </mxGeometry>
                </mxCell>
                <mxCell id="137" value="Professor" style="rounded=0;whiteSpace=wrap;html=1;fontFamily=Architects Daughter;fontSource=https%3A%2F%2Ffonts.googleapis.com%2Fcss%3Ffamily%3DArchitects%2BDaughter;fontSize=18;" vertex="1" parent="1">
                    <mxGeometry x="880" y="790" width="120" height="60" as="geometry"/>
                </mxCell>
                <mxCell id="138" value="" style="endArrow=none;html=1;strokeWidth=4;fontFamily=Architects Daughter;fontSource=https%3A%2F%2Ffonts.googleapis.com%2Fcss%3Ffamily%3DArchitects%2BDaughter;fontSize=18;exitX=0.414;exitY=-0.035;exitDx=0;exitDy=0;exitPerimeter=0;" edge="1" parent="1" source="139">
                    <mxGeometry width="50" height="50" relative="1" as="geometry">
                        <mxPoint x="934.38" y="960" as="sourcePoint"/>
                        <mxPoint x="934.38" y="850" as="targetPoint"/>
                        <Array as="points">
                            <mxPoint x="840" y="960"/>
                        </Array>
                    </mxGeometry>
                </mxCell>
                <mxCell id="139" value="&lt;u&gt;ID&lt;/u&gt;" style="ellipse;whiteSpace=wrap;html=1;fontFamily=Architects Daughter;fontSource=https%3A%2F%2Ffonts.googleapis.com%2Fcss%3Ffamily%3DArchitects%2BDaughter;fontSize=18;" vertex="1" parent="1">
                    <mxGeometry x="795" y="960" width="105" height="60" as="geometry"/>
                </mxCell>
                <mxCell id="140" value="" style="endArrow=none;html=1;strokeWidth=4;fontFamily=Architects Daughter;fontSource=https%3A%2F%2Ffonts.googleapis.com%2Fcss%3Ffamily%3DArchitects%2BDaughter;fontSize=18;exitX=0.5;exitY=0;exitDx=0;exitDy=0;" edge="1" parent="1" source="141">
                    <mxGeometry width="50" height="50" relative="1" as="geometry">
                        <mxPoint x="1070" y="950" as="sourcePoint"/>
                        <mxPoint x="990" y="850" as="targetPoint"/>
                    </mxGeometry>
                </mxCell>
                <mxCell id="141" value="first_name" style="ellipse;whiteSpace=wrap;html=1;fontFamily=Architects Daughter;fontSource=https%3A%2F%2Ffonts.googleapis.com%2Fcss%3Ffamily%3DArchitects%2BDaughter;fontSize=18;" vertex="1" parent="1">
                    <mxGeometry x="930" y="960" width="120" height="80" as="geometry"/>
                </mxCell>
                <mxCell id="142" value="" style="endArrow=none;html=1;strokeWidth=4;fontFamily=Architects Daughter;fontSource=https%3A%2F%2Ffonts.googleapis.com%2Fcss%3Ffamily%3DArchitects%2BDaughter;fontSize=18;" edge="1" parent="1" target="143">
                    <mxGeometry width="50" height="50" relative="1" as="geometry">
                        <mxPoint x="1000" y="830" as="sourcePoint"/>
                        <mxPoint x="1090" y="890" as="targetPoint"/>
                    </mxGeometry>
                </mxCell>
                <mxCell id="143" value="last_name" style="ellipse;whiteSpace=wrap;html=1;fontFamily=Architects Daughter;fontSource=https%3A%2F%2Ffonts.googleapis.com%2Fcss%3Ffamily%3DArchitects%2BDaughter;fontSize=18;" vertex="1" parent="1">
                    <mxGeometry x="1080" y="880" width="120" height="60" as="geometry"/>
                </mxCell>
            </root>
        </mxGraphModel>
    </diagram>
</mxfile>